# Blender 4.0.2
# www.blender.org
mtllib tweezers.mtl
o Cube
v -0.009457 0.000083 -0.002588
v -0.018113 0.155422 -0.013562
v 0.009457 -0.059470 -0.002588
v -0.018113 0.155422 -0.010975
v 0.009457 0.000083 -0.002588
v -0.020511 0.159676 -0.013562
v -0.009457 -0.059470 -0.002588
v -0.020511 0.159676 -0.010975
v -0.009457 0.000083 0.000000
v -0.018113 0.155422 0.010974
v -0.009457 0.000083 0.002587
v -0.018113 0.155422 0.013561
v 0.009457 0.000083 0.000000
v -0.020511 0.159676 0.010974
v 0.009457 0.000083 0.002587
v -0.020511 0.159676 0.013561
v -0.009457 -0.059470 0.002587
v -0.009457 -0.059470 0.000000
v 0.009457 -0.059470 0.002587
v 0.009457 -0.059470 0.000000
v -0.007614 -0.065383 0.000000
v 0.007614 -0.065383 0.000000
v 0.007614 -0.065383 0.002587
v -0.007614 -0.065383 0.002587
v -0.007614 -0.065383 -0.002588
v 0.007614 -0.065383 -0.002588
v -0.002927 -0.067391 0.000000
v 0.002927 -0.067391 0.000000
v 0.002927 -0.067391 0.002587
v -0.002927 -0.067391 0.002587
v -0.002927 -0.067391 -0.002588
v 0.002927 -0.067391 -0.002588
v -0.013464 0.149676 0.010426
v -0.013464 0.149676 0.013013
v -0.008700 0.149676 0.013013
v -0.008700 0.149676 0.010426
v -0.009457 0.142196 0.012491
v -0.003546 0.142196 0.012491
v -0.003546 0.142196 0.009904
v -0.009457 0.142196 0.009904
v -0.013464 0.149676 -0.013013
v -0.008700 0.149676 -0.013013
v -0.013464 0.149676 -0.010426
v -0.008700 0.149676 -0.010426
v -0.003546 0.142196 -0.012492
v -0.009457 0.142196 -0.009905
v -0.003546 0.142196 -0.009905
v -0.009457 0.142196 -0.012492
vn 0.7774 0.6290 -0.0000
vn 0.0435 -0.0242 -0.9988
vn -0.6462 -0.7632 -0.0000
vn -0.0435 0.0242 0.9988
vn -0.0000 -0.0000 1.0000
vn 0.8711 0.4911 -0.0000
vn -0.0435 0.0242 -0.9988
vn 0.0435 -0.0242 0.9988
vn 1.0000 -0.0000 -0.0000
vn 0.9547 0.2975 -0.0000
vn -1.0000 -0.0000 -0.0000
vn -0.0000 -0.0000 -1.0000
vn 0.3937 0.9192 -0.0000
vn -0.9547 0.2975 -0.0000
vn -0.0000 1.0000 -0.0000
vn -0.3937 0.9192 -0.0000
vn -0.0000 -0.0695 0.9976
vn -0.8234 -0.5674 -0.0000
vn -0.0000 0.0695 -0.9976
vn 0.8815 0.4722 -0.0000
vn -0.9958 -0.0911 -0.0000
vn -0.0000 0.0695 0.9976
vn -0.0000 -0.0695 -0.9976
vt 0.501247 0.767767
vt 0.505913 0.763599
vt 0.508449 0.764832
vt 0.502829 0.769753
vt 0.512646 0.762258
vt 0.503026 0.774551
vt 0.495806 0.764647
vt 0.508436 0.758497
vt 0.506847 0.761574
vt 0.497057 0.766627
vt 0.387678 0.847589
vt 0.394606 0.866404
vt 0.334334 0.866859
vt 0.334038 0.849888
vt 0.502890 0.963257
vt 0.508508 0.967671
vt 0.506070 0.969056
vt 0.501440 0.965250
vt 0.506786 0.970764
vt 0.497539 0.966518
vt 0.510943 0.974816
vt 0.496342 0.968721
vt 0.502836 0.958665
vt 0.512646 0.969917
vt 0.395202 0.869158
vt 0.394689 0.871895
vt 0.334377 0.872522
vt 0.334360 0.869841
vt 0.327629 0.872712
vt 0.327556 0.869882
vt 0.327487 0.867020
vt 0.388535 0.890026
vt 0.388523 0.892383
vt 0.334277 0.892106
vt 0.334289 0.889750
vt 0.388511 0.894740
vt 0.334265 0.894464
vt 0.322023 0.872867
vt 0.321945 0.870021
vt 0.321869 0.867170
vt 0.328912 0.888044
vt 0.328983 0.874173
vt 0.328624 0.894435
vt 0.328636 0.892078
vt 0.329000 0.865298
vt 0.328762 0.851634
vt 0.328648 0.889722
vt 0.315501 0.870195
vt 0.315424 0.867345
vt 0.315579 0.873042
vt 0.323992 0.892054
vt 0.324004 0.889698
vt 0.323980 0.894411
vt 0.327125 0.861123
vt 0.327034 0.855871
vt 0.327105 0.883766
vt 0.327132 0.878434
vt 0.498123 0.952806
vt 0.503848 0.958961
vt 0.496935 0.958136
vt 0.490229 0.962376
vt 0.488887 0.964422
vt 0.495491 0.960040
vt 0.395204 0.869158
vt 0.491929 0.964123
vt 0.490463 0.965895
vt 0.387068 0.891799
vt 0.420667 0.869002
vt 0.499681 0.955033
vt 0.490099 0.771104
vt 0.495338 0.773255
vt 0.488702 0.769161
vt 0.496870 0.775165
vt 0.503929 0.774127
vt 0.498236 0.780592
vt 0.499768 0.778267
vt 0.386133 0.845812
vt 0.490033 0.767392
vt 0.491577 0.769168
s 0
f 41/1/1 2/2/1 4/3/1 43/4/1
f 43/4/2 4/3/2 8/5/2 44/6/2
f 44/7/3 8/8/3 6/9/3 42/10/3
f 42/10/4 6/9/4 2/2/4 41/1/4
f 5/11/5 1/12/5 7/13/5 3/14/5
f 8/8/6 4/3/6 2/2/6 6/9/6
f 33/15/1 10/16/1 12/17/1 34/18/1
f 34/18/7 12/17/7 16/19/7 35/20/7
f 35/20/3 16/19/3 14/21/3 36/22/3
f 36/23/8 14/24/8 10/16/8 33/15/8
f 9/25/9 11/26/9 17/27/9 18/28/9
f 16/19/6 12/17/6 10/16/6 14/21/6
f 18/28/10 17/27/10 24/29/10 21/30/10
f 7/13/10 18/28/10 21/30/10 25/31/10
f 15/32/11 13/33/11 20/34/11 19/35/11
f 1/12/9 9/25/9 18/28/9 7/13/9
f 13/33/11 5/36/11 3/37/11 20/34/11
f 11/26/12 15/32/12 19/35/12 17/27/12
f 21/30/13 24/29/13 30/38/13 27/39/13
f 25/31/13 21/30/13 27/39/13 31/40/13
f 17/27/12 19/35/12 23/41/12 24/42/12
f 20/34/14 3/37/14 26/43/14 22/44/14
f 3/14/5 7/13/5 25/45/5 26/46/5
f 19/35/14 20/34/14 22/44/14 23/47/14
f 27/39/15 28/48/15 32/49/15 31/40/15
f 30/38/15 29/50/15 28/48/15 27/39/15
f 23/47/16 22/44/16 28/51/16 29/52/16
f 22/44/16 26/43/16 32/53/16 28/51/16
f 26/46/5 25/45/5 31/54/5 32/55/5
f 24/42/12 23/41/12 29/56/12 30/57/12
f 39/58/17 36/59/17 33/15/17 40/60/17
f 38/61/18 35/20/18 36/22/18 39/62/18
f 37/63/19 34/18/19 35/20/19 38/61/19
f 40/60/20 33/15/20 34/18/20 37/63/20
f 9/64/9 40/60/9 37/63/9 11/26/9
f 11/26/19 37/63/19 38/65/19 15/32/19
f 15/32/21 38/65/21 39/66/21 13/67/21
f 13/68/17 39/69/17 40/60/17 9/64/17
f 45/70/22 42/10/22 41/1/22 48/71/22
f 47/72/18 44/7/18 42/10/18 45/70/18
f 46/73/23 43/4/23 44/74/23 47/75/23
f 48/71/20 41/1/20 43/4/20 46/73/20
f 1/12/9 48/71/9 46/73/9 9/64/9
f 9/64/23 46/73/23 47/76/23 13/68/23
f 13/77/21 47/78/21 45/79/21 5/11/21
f 5/11/22 45/79/22 48/71/22 1/12/22
